<?xml version="1.0" encoding="UTF-8" standalone="no"?>
<!-- Created with Inkscape (http://www.inkscape.org/) -->

<svg
   xmlns:dc="http://purl.org/dc/elements/1.1/"
   xmlns:cc="http://creativecommons.org/ns#"
   xmlns:rdf="http://www.w3.org/1999/02/22-rdf-syntax-ns#"
   xmlns:svg="http://www.w3.org/2000/svg"
   xmlns="http://www.w3.org/2000/svg"
   xmlns:sodipodi="http://sodipodi.sourceforge.net/DTD/sodipodi-0.dtd"
   xmlns:inkscape="http://www.inkscape.org/namespaces/inkscape"
   width="297mm"
   height="210mm"
   viewBox="0 0 297 210"
   version="1.1"
   id="svg253"
   inkscape:version="0.92.4 (unknown)"
   sodipodi:docname="BuzzButtons_cut.svg">
  <defs
     id="defs247" />
  <sodipodi:namedview
     id="base"
     pagecolor="#ffffff"
     bordercolor="#666666"
     borderopacity="1.0"
     inkscape:pageopacity="0.0"
     inkscape:pageshadow="2"
     inkscape:zoom="10.176465"
     inkscape:cx="88.329137"
     inkscape:cy="102.81234"
     inkscape:document-units="mm"
     inkscape:current-layer="layer1"
     showgrid="false"
     inkscape:window-width="1918"
     inkscape:window-height="1038"
     inkscape:window-x="0"
     inkscape:window-y="20"
     inkscape:window-maximized="1"
     units="mm" />
  <metadata
     id="metadata250">
    <rdf:RDF>
      <cc:Work
         rdf:about="">
        <dc:format>image/svg+xml</dc:format>
        <dc:type
           rdf:resource="http://purl.org/dc/dcmitype/StillImage" />
        <dc:title />
      </cc:Work>
    </rdf:RDF>
  </metadata>
  <g
     inkscape:label="Layer 1"
     inkscape:groupmode="layer"
     id="layer1"
     transform="translate(0,-87)">
    <path
       id="path224-3"
       style="fill:none;stroke:#000000;stroke-width:0.26458332px;stroke-linecap:butt;stroke-linejoin:miter;stroke-opacity:1"
       d="m 4.1098854,233.18868 c -0.416659,-5.39207 5.886541,-12.11534 12.4399206,-10.99133 3.27599,1.25567 3.17442,-0.0575 7.64855,4.25659 3.14391,7.29072 1.83194,17.71183 2.4159,25.05728 0.85871,16.12454 1.677469,15.65668 2.092566,25.71643 0.17222,3.73638 -0.01882,6.75533 -1.388256,9.5397 -0.96345,3.21327 -4.37481,6.13784 -7.97933,6.72242 -3.19088,0.0973 -6.82505,-0.48485 -9.16911,-2.80771 C 4.8354964,283.8286 6.6513264,280.37757 6.5939064,273.93578 m 0,0 -0.12471,-10.35051 -2.36939,-31.30096"
       inkscape:connector-curvature="0"
       sodipodi:nodetypes="cccccccccccc" />
    <path
       id="path224-3-3"
       style="fill:none;stroke:#000000;stroke-width:0.26458332px;stroke-linecap:butt;stroke-linejoin:miter;stroke-opacity:1"
       d="m 30.14201,232.76215 c -0.416659,-5.39207 5.886541,-12.11534 12.439921,-10.99133 3.27599,1.25567 3.17442,-0.0575 7.64855,4.25659 3.14391,7.29072 1.83194,17.71183 2.4159,25.05728 0.85871,16.12454 3.263441,17.55465 1.85857,25.63843 0.17222,3.73638 0.21518,6.83333 -1.15426,9.6177 -0.96345,3.21327 -4.37481,6.13784 -7.97933,6.72242 -3.19088,0.0973 -6.82505,-0.48485 -9.16911,-2.80771 -5.33463,-6.85346 -3.582,-12.93463 -3.63942,-19.37642 m -0.0408,8.40204 -0.02071,-16.12241 -2.36939,-31.30096"
       inkscape:connector-curvature="0"
       sodipodi:nodetypes="cccccccccccc" />
    <path
       id="path224-3-6"
       style="fill:none;stroke:#000000;stroke-width:0.26458332px;stroke-linecap:butt;stroke-linejoin:miter;stroke-opacity:1"
       d="m 56.622253,234.04604 c -0.416659,-5.39207 5.886541,-12.11534 12.439921,-10.99133 3.27599,1.25567 3.17442,-0.0575 7.64855,4.25659 3.14391,7.29072 1.83194,17.71183 2.4159,25.05728 0.85871,16.12454 3.263441,17.55465 1.85857,25.63843 0.17222,3.73638 0.21518,6.83333 -1.15426,9.6177 -0.96345,3.21327 -4.37481,6.13784 -7.97933,6.72242 -3.19088,0.0973 -6.82505,-0.48485 -9.16911,-2.80771 -5.33463,-6.85346 -5.961476,-8.2522 -3.457423,-19.89641 m -0.118797,3.15013 c -0.538537,-2.88031 -0.447133,-3.53773 -0.6707,-5.3066 l -1.8234,-36.34487"
       inkscape:connector-curvature="0"
       sodipodi:nodetypes="cccccccccccc" />
    <path
       id="path224-3-7"
       style="fill:none;stroke:#000000;stroke-width:0.26458332px;stroke-linecap:butt;stroke-linejoin:miter;stroke-opacity:1"
       d="m 85.028332,233.88555 c -0.416659,-5.39207 5.886541,-12.11534 12.439921,-10.99133 3.275987,1.25567 3.174417,-0.0575 7.648547,4.25659 3.14391,7.29072 1.83194,17.71184 2.4159,25.05729 0.85871,16.12454 3.26344,17.55465 1.85857,25.63843 0.17222,3.73638 0.21518,6.83333 -1.15426,9.6177 -0.96345,3.21327 -4.37481,6.13784 -7.97933,6.72242 -3.190877,0.0973 -6.825047,-0.48485 -9.169107,-2.80771 -5.33463,-6.85346 -6.334151,-5.40803 -3.70093,-27.09679 m -0.629276,11.91048 0.629276,-11.91048 -2.36939,-31.30097"
       inkscape:connector-curvature="0"
       sodipodi:nodetypes="cccccccccccc" />
  </g>
</svg>
