<?xml version="1.0" encoding="UTF-8" standalone="no"?>
<!-- Created with Inkscape (http://www.inkscape.org/) -->

<svg
   xmlns:dc="http://purl.org/dc/elements/1.1/"
   xmlns:cc="http://creativecommons.org/ns#"
   xmlns:rdf="http://www.w3.org/1999/02/22-rdf-syntax-ns#"
   xmlns:svg="http://www.w3.org/2000/svg"
   xmlns="http://www.w3.org/2000/svg"
   xmlns:sodipodi="http://sodipodi.sourceforge.net/DTD/sodipodi-0.dtd"
   xmlns:inkscape="http://www.inkscape.org/namespaces/inkscape"
   width="210mm"
   height="297mm"
   viewBox="0 0 210 297"
   version="1.1"
   id="svg8"
   inkscape:version="0.92.4 (unknown)"
   sodipodi:docname="Halloween2019_pumpkin.svg">
  <defs
     id="defs2" />
  <sodipodi:namedview
     id="base"
     pagecolor="#ffffff"
     bordercolor="#666666"
     borderopacity="1.0"
     inkscape:pageopacity="0.0"
     inkscape:pageshadow="2"
     inkscape:zoom="1.7358381"
     inkscape:cx="301.89966"
     inkscape:cy="166.03846"
     inkscape:document-units="mm"
     inkscape:current-layer="layer1"
     showgrid="false"
     inkscape:window-width="1918"
     inkscape:window-height="1038"
     inkscape:window-x="0"
     inkscape:window-y="20"
     inkscape:window-maximized="1" />
  <metadata
     id="metadata5">
    <rdf:RDF>
      <cc:Work
         rdf:about="">
        <dc:format>image/svg+xml</dc:format>
        <dc:type
           rdf:resource="http://purl.org/dc/dcmitype/StillImage" />
        <dc:title></dc:title>
      </cc:Work>
    </rdf:RDF>
  </metadata>
  <g
     inkscape:label="Layer 1"
     inkscape:groupmode="layer"
     id="layer1">
    <g
       id="g10670"
       transform="matrix(0.26458333,0,0,0.26458333,-2.6411116,293.03724)"
       inkscape:label="Hershey Text">
      <path
         id="path10644"
         style="fill:none;stroke:#000000"
         d="m 23.7,-12.9 -5.1,9.2 -3.3,7.4 -1.8,6 -0.1,2.9 0.1,1.2 0.6,0.9 M 10,0.7 21.2,0.3 27,-0.3 l 4.6,-1 m 6.3,-10.1 -4.5,7 -3.1,5.6 -0.9,3.9 0.2,2.1 1.4,1.3 1.5,-0.3"
         inkscape:connector-curvature="0" />
      <path
         id="path10646"
         transform="translate(26.4)"
         style="fill:none;stroke:#000000"
         d="m 22.7,-2.4 -1.3,-1.5 -2.6,-0.4 -2.9,1.5 -3.6,3.7 -2.2,3.7 -0.6,2.7 0.8,1.6 h 1.8 l 1.4,-1.3 6.9,-8.2 0.1,0.2 -1.5,4.7 v 3.5 l 0.5,1.5 1.4,0.2"
         inkscape:connector-curvature="0" />
      <path
         id="path10648"
         transform="translate(40.6)"
         style="fill:none;stroke:#000000"
         d="m 11.2,0.5 2.9,-2.6 3.3,-4.8 2.8,-3.8 1.3,-3.3 -0.9,-1.5 -1.2,-0.3 -1.7,0.8 -4.1,7.7 -1.8,5.6 -1.3,5.4 -0.1,2.9 v 1.8 l 1,0.9 1.6,0.1"
         inkscape:connector-curvature="0" />
      <path
         id="path10650"
         transform="translate(49.7)"
         style="fill:none;stroke:#000000"
         d="m 11.2,0.5 2.9,-2.6 3.3,-4.8 2.8,-3.8 1.3,-3.3 -0.9,-1.5 -1.2,-0.3 -1.7,0.8 -4.1,7.7 -1.8,5.6 -1.3,5.4 -0.1,2.9 v 1.8 l 1,0.9 1.6,0.1"
         inkscape:connector-curvature="0" />
      <path
         id="path10652"
         transform="translate(58.8)"
         style="fill:none;stroke:#000000"
         d="m 14.1,0.8 -1.7,-1.1 -1,-1.4 0.1,-2.6 1.9,-1.6 2.3,-0.1 1.5,1 1.1,2 0.4,2.7 L 18.3,3 16.6,6.6 14.5,8.6 13.4,8.9 11.3,8.8 9.8,7.1 9.7,4.4 l 0.9,-2.8 1.2,-1.5 1.7,-1.4 1.4,-0.9 1.6,-0.6 h 2.4 l 1.5,0.3"
         inkscape:connector-curvature="0" />
      <path
         id="path10654"
         transform="translate(71)"
         style="fill:none;stroke:#000000"
         d="M 15.4,-3 11.7,2.5 9.9,6.2 9.7,7.9 10.6,9 l 1.5,-0.3 1.3,-1.2 3.2,-4 3.4,-4.8 0.7,-0.1 -0.1,3.1 0.3,3.2 0.7,2.3 1,1.4 1.4,0.3 2,-1.2 2.1,-3.3 0.7,-3.1 v -2.2 l -0.4,-1.6 -1,-1.5"
         inkscape:connector-curvature="0" />
      <path
         id="path10656"
         transform="translate(93.2)"
         style="fill:none;stroke:#000000"
         d="m 13.2,2.6 2.5,-0.7 2.4,-2.1 0.7,-1.5 V -3.2 L 17.9,-4 16.5,-4.2 14.2,-3 11.5,0.3 9.5,3.9 9.1,6.3 9.3,7.9 10.6,9.2 13.1,9.3 15.3,8 17.2,6.1 18.7,4.3 19.9,2.6"
         inkscape:connector-curvature="0" />
      <path
         id="path10658"
         transform="translate(105)"
         style="fill:none;stroke:#000000"
         d="m 13.2,2.6 2.5,-0.7 2.4,-2.1 0.7,-1.5 V -3.2 L 17.9,-4 16.5,-4.2 14.2,-3 11.5,0.3 9.5,3.9 9.1,6.3 9.3,7.9 10.6,9.2 13.1,9.3 15.3,8 17.2,6.1 18.7,4.3 19.9,2.6"
         inkscape:connector-curvature="0" />
      <path
         id="path10660"
         transform="translate(116.8)"
         style="fill:none;stroke:#000000"
         d="m 11.7,-5.3 1.7,0.3 0.6,1.1 -0.8,4.1 -1.7,5.2 -0.7,2.9 2.3,-3.8 3,-4 2.1,-2.9 0.8,-0.5 1.5,-0.4 v 0 l 0.6,-0.9 0.8,0.1 -1.6,2.5 -1.6,5.1 -0.2,3.4 0.7,2.1 1.3,0.6 0.6,-0.1 0.6,-0.6"
         inkscape:connector-curvature="0" />
      <path
         id="path10662"
         transform="translate(138)"
         style="fill:none;stroke:#000000"
         d="m 15.2,-4.5 -0.6,-1.3 1.8,-1.4 5.4,-2 3.9,-0.3 1.8,0.4 0.3,2.2 -4.9,6.1 -7,5.5 -5.5,3.5 6,-0.7 4.8,-0.3 1.9,0.1 0.9,0.4 0.5,1.1"
         inkscape:connector-curvature="0" />
      <path
         id="path10664"
         transform="translate(158.1)"
         style="fill:none;stroke:#000000"
         d="m 18.2,-5.9 -1.3,-0.2 -3,3 -3,5 -1,2.7 0.5,2.7 1.8,1.4 2.8,0.1 4.4,-1.8 5.1,-4.6 3.2,-4.4 0.8,-3.8 -1.3,-2 -3,-1.5 -5.5,-0.2 -2.2,0.3 -2.5,1"
         inkscape:connector-curvature="0" />
      <path
         id="path10666"
         transform="translate(179.8)"
         style="fill:none;stroke:#000000"
         d="m 11.5,-4.7 4.2,-5 1.2,0.2 -4.2,8.1 -2.2,6.1 -0.1,2.1 0.4,2.5"
         inkscape:connector-curvature="0" />
      <path
         id="path10668"
         transform="translate(189.3)"
         style="fill:none;stroke:#000000"
         d="m 20.5,-7.7 -0.6,-1.5 -1.4,-1.1 -2.3,0.3 -2.9,1.5 -2.8,2.7 -1.3,2 0.3,1.9 1.9,1.4 3.2,-0.6 2.1,-0.9 2.4,-1.4 2.7,-2.1 H 22 l -3.8,6.3 -2.6,5.8 -0.4,3 v 1.8 l 0.6,0.9 0.9,0.1"
         inkscape:connector-curvature="0" />
    </g>
  </g>
</svg>
