<?xml version="1.0" encoding="UTF-8" standalone="no"?>
<!-- Created with Inkscape (http://www.inkscape.org/) -->

<svg
   xmlns:dc="http://purl.org/dc/elements/1.1/"
   xmlns:cc="http://creativecommons.org/ns#"
   xmlns:rdf="http://www.w3.org/1999/02/22-rdf-syntax-ns#"
   xmlns:svg="http://www.w3.org/2000/svg"
   xmlns="http://www.w3.org/2000/svg"
   xmlns:sodipodi="http://sodipodi.sourceforge.net/DTD/sodipodi-0.dtd"
   xmlns:inkscape="http://www.inkscape.org/namespaces/inkscape"
   width="210mm"
   height="297mm"
   viewBox="0 0 210 297"
   version="1.1"
   id="svg8"
   inkscape:version="0.92.4 (unknown)"
   sodipodi:docname="woody.svg">
  <defs
     id="defs2">
    <clipPath
       id="clipPath850"
       clipPathUnits="userSpaceOnUse">
      <path
         inkscape:connector-curvature="0"
         id="path848"
         d="M 0,612 H 792 V 0 H 0 Z" />
    </clipPath>
  </defs>
  <sodipodi:namedview
     id="base"
     pagecolor="#ffffff"
     bordercolor="#666666"
     borderopacity="1.0"
     inkscape:pageopacity="0.0"
     inkscape:pageshadow="2"
     inkscape:zoom="2.1875787"
     inkscape:cx="198.49151"
     inkscape:cy="203.26007"
     inkscape:document-units="mm"
     inkscape:current-layer="g852"
     showgrid="false"
     inkscape:window-width="1918"
     inkscape:window-height="1038"
     inkscape:window-x="0"
     inkscape:window-y="20"
     inkscape:window-maximized="1" />
  <metadata
     id="metadata5">
    <rdf:RDF>
      <cc:Work
         rdf:about="">
        <dc:format>image/svg+xml</dc:format>
        <dc:type
           rdf:resource="http://purl.org/dc/dcmitype/StillImage" />
        <dc:title></dc:title>
      </cc:Work>
    </rdf:RDF>
  </metadata>
  <g
     inkscape:label="Layer 1"
     inkscape:groupmode="layer"
     id="layer1">
    <g
       transform="matrix(0.1489411,0,0,-0.1489411,-16.769978,302.05327)"
       inkscape:label="sheriff-star-pattern"
       id="g842">
      <g
         id="g844">
        <g
           clip-path="url(#clipPath850)"
           id="g846">
          <g
             transform="translate(411.3047,518.582)"
             id="g852">
            <path
               inkscape:connector-curvature="0"
               id="path854"
               style="fill:none;stroke:#000000;stroke-width:3;stroke-linecap:round;stroke-linejoin:round;stroke-miterlimit:22.9260006;stroke-dasharray:none;stroke-opacity:1"
               d="m 0,0 65.727,-117.977 141.777,-31.86 c 3.04,13.59 15.174,23.746 29.681,23.746 16.797,0 30.416,-13.617 30.416,-30.416 0,-16.798 -13.619,-30.416 -30.416,-30.416 -7.995,0 -15.266,3.086 -20.695,8.129 l -91.896,-98.972 13.511,-144.688 c 0.932,0.086 1.874,0.133 2.829,0.133 16.797,0 30.416,-13.618 30.416,-30.416 0,-16.799 -13.619,-30.417 -30.416,-30.417 -16.799,0 -30.416,13.618 -30.416,30.417 0,4.571 1.009,8.907 2.817,12.797 l -122.518,56.811 -133.426,-57.558 c 1.596,-3.696 2.483,-7.769 2.483,-12.05 0,-16.799 -13.618,-30.417 -30.416,-30.417 -16.799,0 -30.416,13.618 -30.416,30.417 0,16.798 13.617,30.416 30.416,30.416 1.232,0 2.447,-0.076 3.642,-0.219 l 16.171,134.081 -95.977,109.115 c -5.358,-4.717 -12.389,-7.579 -20.087,-7.579 -16.799,0 -30.417,13.618 -30.417,30.416 0,16.799 13.618,30.416 30.417,30.416 14.79,0 27.113,-10.557 29.848,-24.548 l 132.512,26.053 74.114,124.995 c -8.921,5.301 -14.902,15.034 -14.902,26.165 0,16.799 13.618,30.416 30.416,30.416 16.799,0 30.416,-13.617 30.416,-30.416 C 15.611,15.15 9.313,5.2 0,0 Z" />
          </g>
        </g>
      </g>
    </g>
  </g>
</svg>
