<?xml version="1.0" encoding="UTF-8" standalone="no"?>
<!-- Created with Inkscape (http://www.inkscape.org/) -->

<svg
   xmlns:dc="http://purl.org/dc/elements/1.1/"
   xmlns:cc="http://creativecommons.org/ns#"
   xmlns:rdf="http://www.w3.org/1999/02/22-rdf-syntax-ns#"
   xmlns:svg="http://www.w3.org/2000/svg"
   xmlns="http://www.w3.org/2000/svg"
   xmlns:sodipodi="http://sodipodi.sourceforge.net/DTD/sodipodi-0.dtd"
   xmlns:inkscape="http://www.inkscape.org/namespaces/inkscape"
   width="297mm"
   height="210mm"
   viewBox="0 0 297 210"
   version="1.1"
   id="svg892"
   inkscape:version="0.92.4 (unknown)"
   sodipodi:docname="woody4.svg">
  <defs
     id="defs886" />
  <sodipodi:namedview
     id="base"
     pagecolor="#ffffff"
     bordercolor="#666666"
     borderopacity="1.0"
     inkscape:pageopacity="0.0"
     inkscape:pageshadow="2"
     inkscape:zoom="0.92469136"
     inkscape:cx="572.85714"
     inkscape:cy="354.28571"
     inkscape:document-units="mm"
     inkscape:current-layer="layer1"
     showgrid="false"
     inkscape:window-width="1918"
     inkscape:window-height="1038"
     inkscape:window-x="0"
     inkscape:window-y="20"
     inkscape:window-maximized="0" />
  <metadata
     id="metadata889">
    <rdf:RDF>
      <cc:Work
         rdf:about="">
        <dc:format>image/svg+xml</dc:format>
        <dc:type
           rdf:resource="http://purl.org/dc/dcmitype/StillImage" />
        <dc:title></dc:title>
      </cc:Work>
    </rdf:RDF>
  </metadata>
  <g
     inkscape:label="Layer 1"
     inkscape:groupmode="layer"
     id="layer1"
     transform="translate(0,-87)">
    <path
       inkscape:connector-curvature="0"
       id="path854"
       style="fill:none;stroke:#000000;stroke-width:0.53679836;stroke-linecap:round;stroke-linejoin:round;stroke-miterlimit:22.9260006;stroke-dasharray:none;stroke-opacity:1"
       d="m 53.448999,210.45529 11.76072,21.10995 25.368555,5.7008 c 0.54396,-2.4317 2.71513,-4.24893 5.31091,-4.24893 3.00553,0 5.442406,2.43652 5.442406,5.44241 0,3.00572 -2.436876,5.44242 -5.442406,5.44242 -1.43058,0 -2.7316,-0.55218 -3.70302,-1.45454 l -16.443205,17.70933 2.41755,25.88943 c 0.16678,-0.0154 0.33533,-0.0238 0.50621,-0.0238 3.00553,0 5.442419,2.43671 5.442419,5.44242 0,3.00589 -2.436889,5.4426 -5.442419,5.4426 -3.0059,0 -5.44241,-2.43671 -5.44241,-5.4426 0,-0.8179 0.18054,-1.59375 0.50404,-2.2898 l -21.92248,-10.16535 -23.87429,10.29901 c 0.28558,0.66134 0.44429,1.39013 0.44429,2.15614 0,3.00589 -2.43671,5.4426 -5.44242,5.4426 -3.00589,0 -5.44241,-2.43671 -5.44241,-5.4426 0,-3.00571 2.43652,-5.44242 5.44241,-5.44242 0.22044,0 0.43785,0.0136 0.65167,0.0392 l 2.89353,-23.99149 -17.1734298,-19.52425 c -0.95873,0.84403 -2.2168,1.35613 -3.59423,1.35613 -3.00589,0 -5.44259002,-2.4367 -5.44259002,-5.44242 0,-3.00589 2.43670002,-5.44241 5.44259002,-5.44241 2.64642,0 4.8514098,1.88899 5.3407898,4.39244 l 23.71074,-4.66174 13.26143,-22.3657 c -1.59627,-0.94852 -2.66646,-2.69008 -2.66646,-4.68178 0,-3.00589 2.43671,-5.44242 5.44242,-5.44242 3.00589,0 5.44241,2.43653 5.44241,5.44242 0,2.04413 -1.12691,3.82451 -2.79332,4.75496 z" />
    <path
       inkscape:connector-curvature="0"
       id="path854-6-7"
       style="fill:none;stroke:#000000;stroke-width:0.53679836;stroke-linecap:round;stroke-linejoin:round;stroke-miterlimit:22.9260006;stroke-dasharray:none;stroke-opacity:1"
       d="m 53.448997,129.39439 11.760719,21.10995 25.36856,5.7008 c 0.54396,-2.4317 2.71512,-4.24893 5.31091,-4.24893 3.00552,0 5.442404,2.43652 5.442404,5.44241 0,3.00572 -2.436884,5.44242 -5.442404,5.44242 -1.43058,0 -2.7316,-0.55218 -3.70303,-1.45454 l -16.4432,17.70933 2.41755,25.88943 c 0.16678,-0.0154 0.33533,-0.0238 0.50621,-0.0238 3.00553,0 5.44242,2.43671 5.44242,5.44242 0,3.00589 -2.43689,5.4426 -5.44242,5.4426 -3.0059,0 -5.442408,-2.43671 -5.442408,-5.4426 0,-0.8179 0.180538,-1.59375 0.504039,-2.2898 L 51.805866,197.94876 27.931579,208.24777 c 0.28558,0.66134 0.44429,1.39013 0.44429,2.15614 0,3.00589 -2.43671,5.4426 -5.44242,5.4426 -3.00589,0 -5.44241,-2.43671 -5.44241,-5.4426 0,-3.00571 2.43652,-5.44242 5.44241,-5.44242 0.22044,0 0.43785,0.0136 0.65167,0.0392 L 26.478649,181.0092 9.3052192,161.48495 c -0.95873,0.84403 -2.2168,1.35613 -3.59423,1.35613 -3.00589,0 -5.44259002,-2.4367 -5.44259002,-5.44242 0,-3.00589 2.43670002,-5.44241 5.44259002,-5.44241 2.64642,0 4.8514098,1.88899 5.3407898,4.39244 l 23.710737,-4.66177 13.26143,-22.3657 c -1.596271,-0.94852 -2.66646,-2.69008 -2.66646,-4.68178 0,-3.00589 2.436709,-5.44242 5.442421,-5.44242 3.005889,0 5.44241,2.43653 5.44241,5.44242 0,2.04413 -1.12691,3.82451 -2.79332,4.75496 z" />
    <path
       inkscape:connector-curvature="0"
       id="path854-6-5"
       style="fill:none;stroke:#000000;stroke-width:0.53679836;stroke-linecap:round;stroke-linejoin:round;stroke-miterlimit:22.9260006;stroke-dasharray:none;stroke-opacity:1"
       d="m 232.18024,211.16063 11.76072,21.10995 25.36857,5.7008 c 0.54396,-2.4317 2.71512,-4.24893 5.31091,-4.24893 3.00551,0 5.4424,2.43652 5.4424,5.44241 0,3.00572 -2.43689,5.44242 -5.4424,5.44242 -1.43059,0 -2.73161,-0.55218 -3.70304,-1.45454 l -16.4432,17.70933 2.41755,25.88943 c 0.16678,-0.0154 0.33533,-0.0238 0.50622,-0.0238 3.00552,0 5.44241,2.43671 5.44241,5.44242 0,3.00589 -2.43689,5.4426 -5.44241,5.4426 -3.00591,0 -5.44241,-2.43671 -5.44241,-5.4426 0,-0.8179 0.18053,-1.59375 0.50403,-2.2898 L 230.53711,279.71499 206.66282,290.014 c 0.28558,0.66134 0.44429,1.39013 0.44429,2.15614 0,3.00589 -2.43671,5.4426 -5.44242,5.4426 -3.00589,0 -5.44241,-2.43671 -5.44241,-5.4426 0,-3.00571 2.43652,-5.44242 5.44241,-5.44242 0.22044,0 0.43785,0.0136 0.65167,0.0392 l 2.89353,-23.99149 -17.17343,-19.52425 c -0.95873,0.84403 -2.2168,1.35613 -3.59423,1.35613 -3.00589,0 -5.44259,-2.4367 -5.44259,-5.44242 0,-3.00589 2.4367,-5.44241 5.44259,-5.44241 2.64642,0 4.85141,1.88899 5.34079,4.39244 l 23.71074,-4.66176 13.26143,-22.3657 c -1.59627,-0.94852 -2.66646,-2.69008 -2.66646,-4.68178 0,-3.00589 2.43671,-5.44242 5.44242,-5.44242 3.00589,0 5.44241,2.43653 5.44241,5.44242 0,2.04413 -1.12691,3.82451 -2.79332,4.75496 z" />
    <path
       inkscape:connector-curvature="0"
       id="path854-6-7-5"
       style="fill:none;stroke:#000000;stroke-width:0.53679836;stroke-linecap:round;stroke-linejoin:round;stroke-miterlimit:22.9260006;stroke-dasharray:none;stroke-opacity:1"
       d="m 142.28236,117.83658 11.76072,21.10995 25.36856,5.7008 c 0.54396,-2.4317 2.71512,-4.24893 5.31092,-4.24893 3.00552,0 5.44241,2.43652 5.44241,5.44241 0,3.00572 -2.43689,5.44242 -5.44241,5.44242 -1.43059,0 -2.73161,-0.55218 -3.70304,-1.45454 l -16.4432,17.70933 2.41755,25.88943 c 0.16678,-0.0154 0.33533,-0.0238 0.50621,-0.0238 3.00553,0 5.44242,2.43671 5.44242,5.44242 0,3.00589 -2.43689,5.4426 -5.44242,5.4426 -3.0059,0 -5.44241,-2.43671 -5.44241,-5.4426 0,-0.8179 0.18054,-1.59375 0.50404,-2.2898 l -21.92248,-10.16533 -23.87429,10.29901 c 0.28558,0.66134 0.44429,1.39013 0.44429,2.15614 0,3.00589 -2.43671,5.4426 -5.44242,5.4426 -3.00589,0 -5.44241,-2.43671 -5.44241,-5.4426 0,-3.00571 2.43652,-5.44242 5.44241,-5.44242 0.22044,0 0.43785,0.0136 0.65167,0.0392 l 2.89353,-23.99149 -17.173429,-19.52425 c -0.95873,0.84403 -2.2168,1.35613 -3.59423,1.35613 -3.00589,0 -5.44259,-2.4367 -5.44259,-5.44242 0,-3.00589 2.4367,-5.44241 5.44259,-5.44241 2.64642,0 4.85141,1.88899 5.34079,4.39244 l 23.710739,-4.66177 13.26143,-22.3657 c -1.59627,-0.94852 -2.66646,-2.69008 -2.66646,-4.68178 0,-3.00589 2.43671,-5.44242 5.44242,-5.44242 3.00589,0 5.44241,2.43653 5.44241,5.44242 0,2.04413 -1.12691,3.82451 -2.79332,4.75496 z" />
    <path
       inkscape:connector-curvature="0"
       id="path854-3"
       style="fill:none;stroke:#000000;stroke-width:0.53679836;stroke-linecap:round;stroke-linejoin:round;stroke-miterlimit:22.9260006;stroke-dasharray:none;stroke-opacity:1"
       d="m 143.07761,197.90766 11.76071,21.10995 25.36856,5.7008 c 0.54396,-2.4317 2.71513,-4.24893 5.31091,-4.24893 3.00553,0 5.44242,2.43652 5.44242,5.44241 0,3.00572 -2.43689,5.44242 -5.44242,5.44242 -1.43058,0 -2.7316,-0.55218 -3.70302,-1.45454 l -16.44321,17.70933 2.41756,25.88944 c 0.16678,-0.0153 0.33533,-0.0238 0.50621,-0.0238 3.00553,0 5.44241,2.43671 5.44241,5.44243 0,3.00588 -2.43688,5.44258 -5.44241,5.44258 -3.00591,0 -5.44241,-2.4367 -5.44241,-5.44258 0,-0.81791 0.18053,-1.59375 0.50404,-2.28981 L 141.43447,266.462 117.56018,276.76102 c 0.28558,0.66132 0.44429,1.39012 0.44429,2.15614 0,3.00588 -2.43671,5.44258 -5.44242,5.44258 -3.00589,0 -5.44241,-2.4367 -5.44241,-5.44258 0,-3.00572 2.43652,-5.44243 5.44241,-5.44243 0.22044,0 0.43785,0.0135 0.65167,0.0392 l 2.89353,-23.9915 -17.173432,-19.52425 c -0.95873,0.84403 -2.2168,1.35613 -3.59423,1.35613 -3.00589,0 -5.44259,-2.4367 -5.44259,-5.44242 0,-3.00589 2.4367,-5.44241 5.44259,-5.44241 2.64642,0 4.851412,1.88899 5.340792,4.39244 l 23.71074,-4.66174 13.26143,-22.3657 c -1.59627,-0.94852 -2.66646,-2.69008 -2.66646,-4.68178 0,-3.00589 2.43671,-5.44242 5.44243,-5.44242 3.00588,0 5.44241,2.43653 5.44241,5.44242 0,2.04413 -1.12691,3.82451 -2.79332,4.75496 z" />
    <path
       inkscape:connector-curvature="0"
       id="path854-6-5-6"
       style="fill:none;stroke:#000000;stroke-width:0.53679836;stroke-linecap:round;stroke-linejoin:round;stroke-miterlimit:22.9260006;stroke-dasharray:none;stroke-opacity:1"
       d="m 231.0678,130.07051 11.76072,21.10995 25.36857,5.7008 c 0.54396,-2.4317 2.71512,-4.24893 5.31091,-4.24893 3.00551,0 5.44241,2.43652 5.44241,5.44241 0,3.00572 -2.4369,5.44242 -5.44241,5.44242 -1.43059,0 -2.73161,-0.55218 -3.70304,-1.45454 l -16.4432,17.70933 2.41755,25.88943 c 0.16678,-0.0154 0.33533,-0.0238 0.50622,-0.0238 3.00552,0 5.44241,2.43671 5.44241,5.44242 0,3.00589 -2.43689,5.4426 -5.44241,5.4426 -3.00591,0 -5.44241,-2.43671 -5.44241,-5.4426 0,-0.8179 0.18053,-1.59375 0.50403,-2.2898 l -21.92248,-10.16533 -23.87429,10.29901 c 0.28558,0.66134 0.44429,1.39013 0.44429,2.15615 0,3.00588 -2.43671,5.4426 -5.44242,5.4426 -3.00589,0 -5.44241,-2.43672 -5.44241,-5.4426 0,-3.00572 2.43652,-5.44243 5.44241,-5.44243 0.22044,0 0.43785,0.0136 0.65167,0.0392 l 2.89353,-23.99149 -17.17343,-19.52425 c -0.95873,0.84403 -2.2168,1.35613 -3.59423,1.35613 -3.00589,0 -5.44259,-2.4367 -5.44259,-5.44242 0,-3.00589 2.4367,-5.44241 5.44259,-5.44241 2.64642,0 4.85141,1.88899 5.34079,4.39244 l 23.71074,-4.66177 13.26143,-22.3657 c -1.59627,-0.94853 -2.66646,-2.69009 -2.66646,-4.68179 0,-3.00589 2.43671,-5.44242 5.44242,-5.44242 3.00589,0 5.44241,2.43653 5.44241,5.44242 0,2.04413 -1.12691,3.82451 -2.79332,4.75497 z" />
  </g>
</svg>
