<?xml version="1.0" encoding="UTF-8" standalone="no"?>
<!-- Created with Inkscape (http://www.inkscape.org/) -->

<svg
   xmlns:dc="http://purl.org/dc/elements/1.1/"
   xmlns:cc="http://creativecommons.org/ns#"
   xmlns:rdf="http://www.w3.org/1999/02/22-rdf-syntax-ns#"
   xmlns:svg="http://www.w3.org/2000/svg"
   xmlns="http://www.w3.org/2000/svg"
   xmlns:sodipodi="http://sodipodi.sourceforge.net/DTD/sodipodi-0.dtd"
   xmlns:inkscape="http://www.inkscape.org/namespaces/inkscape"
   sodipodi:docname="woody2.svg"
   inkscape:version="0.92.4 (unknown)"
   id="svg8"
   version="1.1"
   viewBox="0 0 210 297"
   height="297mm"
   width="210mm">
  <defs
     id="defs2">
    <clipPath
       id="clipPath850"
       clipPathUnits="userSpaceOnUse">
      <path
         inkscape:connector-curvature="0"
         id="path848"
         d="M 0,612 H 792 V 0 H 0 Z" />
    </clipPath>
  </defs>
  <sodipodi:namedview
     id="base"
     pagecolor="#ffffff"
     bordercolor="#666666"
     borderopacity="1.0"
     inkscape:pageopacity="0.0"
     inkscape:pageshadow="2"
     inkscape:zoom="4.7692555"
     inkscape:cx="164.77486"
     inkscape:cy="198.50106"
     inkscape:document-units="mm"
     inkscape:current-layer="g852"
     showgrid="false"
     inkscape:window-width="1918"
     inkscape:window-height="1038"
     inkscape:window-x="0"
     inkscape:window-y="20"
     inkscape:window-maximized="1" />
  <metadata
     id="metadata5">
    <rdf:RDF>
      <cc:Work
         rdf:about="">
        <dc:format>image/svg+xml</dc:format>
        <dc:type
           rdf:resource="http://purl.org/dc/dcmitype/StillImage" />
        <dc:title />
      </cc:Work>
    </rdf:RDF>
  </metadata>
  <g
     inkscape:label="Layer 1"
     inkscape:groupmode="layer"
     id="layer1">
    <g
       transform="matrix(0.1489411,0,0,-0.1489411,-16.769978,302.05327)"
       inkscape:label="sheriff-star-pattern"
       id="g842">
      <g
         id="g844">
        <g
           clip-path="url(#clipPath850)"
           id="g846">
          <g
             transform="translate(411.3047,518.582)"
             id="g852">
            <path
               inkscape:connector-curvature="0"
               d="m -131.2942,-181.18891 v -54.36264 m 2.58869,51.77394 v -49.18525 m 2.58869,51.77395 v -54.36264 m 25.88698,54.36264 v -54.36264 m 2.588698,51.77394 v -49.18525 m 2.588697,51.77395 v -54.36264 m -44.007845,54.36264 h 20.70958 m 10.35478,0 h 20.709576 m -38.830456,-25.88698 h 25.88698 m -38.83046,-28.47566 h 20.70958 m 10.35478,0 h 20.709576 m -49.185236,54.36264 5.17739,-2.5887 m -2.5887,2.5887 2.5887,-5.1774 m 7.76609,5.1774 -2.5887,-5.1774 m 5.1774,5.1774 -5.1774,-2.5887 m 20.70958,2.5887 5.1774,-2.5887 m -2.5887,2.5887 2.5887,-5.1774 m 7.766082,5.1774 -2.588697,-5.1774 m 5.177394,5.1774 -5.177394,-2.5887 m -36.241755,-49.18525 -5.17739,-2.58869 m 5.17739,5.17739 -2.5887,-5.17739 m 7.76609,5.17739 2.5887,-5.17739 m -2.5887,2.58869 5.1774,-2.58869 m 20.70958,2.58869 -5.1774,-2.58869 m 5.1774,5.17739 -2.5887,-5.17739 m 7.766085,5.17739 2.588697,-5.17739 m -2.588697,2.58869 5.177394,-2.58869"
               style="fill:none;stroke:#000000;stroke-width:2.5886972"
               id="path2520" />
            <path
               inkscape:connector-curvature="0"
               d="m -69.165477,-181.18891 v -54.36264 m 2.588697,51.77394 v -49.18525 m 2.588698,51.77395 v -54.36264 m -12.943486,54.36264 h 41.419154 v -15.53219 m -28.475668,-10.35479 H -48.4559 m 0,10.35479 v -20.70957 m -28.475668,-18.12088 h 41.419154 v 15.53218 m -38.830457,38.83046 5.177394,-2.5887 m -2.588697,2.5887 2.588697,-5.1774 m 7.766092,5.1774 -2.588697,-5.1774 m 5.177394,5.1774 -5.177394,-2.5887 m 15.532182,2.5887 12.943486,-2.5887 m -7.766092,2.5887 7.766092,-5.1774 m -5.177394,5.1774 5.177394,-7.7661 m -2.588697,7.7661 2.588697,-15.53219 m -12.943486,0 -2.588697,-10.35479 2.588697,-10.35478 m 0,15.53218 -5.177394,-5.1774 5.177394,-5.17739 m 0,7.76609 -10.354788,-2.5887 10.354788,-2.58869 m -20.709577,-23.29828 -5.177394,-2.58869 m 5.177394,5.17739 -2.588697,-5.17739 m 7.766092,5.17739 2.588697,-5.17739 m -2.588697,2.58869 5.177394,-2.58869 m 10.354788,0 12.943486,2.58869 m -7.766092,-2.58869 7.766092,5.17739 m -5.177394,-5.17739 5.177394,7.76609 m -2.588697,-7.76609 2.588697,15.53218"
               style="fill:none;stroke:#000000;stroke-width:2.5886972"
               id="path2522" />
            <path
               inkscape:connector-curvature="0"
               d="m -14.802838,-181.18891 v -54.36264 m 2.588697,51.77394 v -49.18525 m 2.5886972,51.77395 v -54.36264 m -12.9434852,54.36264 H 8.4954359 l 7.7660911,-2.5887 2.588697,-2.5887 2.588697,-5.17739 v -5.1774 l -2.588697,-5.17739 -2.588697,-2.5887 -7.7660911,-2.5887 H -9.6254438 m 25.8869708,20.70958 2.588697,-5.17739 v -5.1774 l -2.588697,-5.17739 m -7.7660911,20.70958 5.1773941,-2.5887 2.588697,-5.1774 v -10.35478 l -2.588697,-5.1774 -5.1773941,-2.5887 m -7.7660913,0 5.1773942,-2.58869 2.5886971,-5.1774 5.1773941,-15.53218 2.588697,-5.17739 h 5.177394 l 2.588697,5.17739 v 5.17739 m -10.354788,0 2.588697,-5.17739 2.588697,-2.5887 h 2.588697 m -15.5321822,23.29828 2.5886971,-2.5887 7.7660911,-15.53218 2.588697,-2.5887 h 2.588697 l 2.588697,2.5887 m -46.596547,-7.76609 h 20.7095765 m -18.1208795,54.36264 5.177394,-2.5887 m -2.588697,2.5887 2.588697,-5.1774 m 7.7660913,5.1774 -2.5886971,-5.1774 m 5.1773942,5.1774 -5.1773942,-2.5887 m -5.1773942,-49.18525 -5.177394,-2.58869 m 5.177394,5.17739 -2.588697,-5.17739 m 7.7660912,5.17739 2.5886971,-5.17739 m -2.5886971,2.58869 5.1773942,-2.58869"
               style="fill:none;stroke:#000000;stroke-width:2.5886972"
               id="path2524" />
            <path
               inkscape:connector-curvature="0"
               d="m 42.148498,-181.18891 v -54.36264 m 2.588697,51.77394 v -49.18525 m 2.588697,51.77395 v -54.36264 m -12.943485,54.36264 h 20.709576 m -20.709576,-54.36264 h 20.709576 m -18.120879,54.36264 5.177394,-2.5887 m -2.588697,2.5887 2.588697,-5.1774 m 7.766091,5.1774 -2.588697,-5.1774 m 5.177394,5.1774 -5.177394,-2.5887 m -5.177394,-49.18525 -5.177394,-2.58869 m 5.177394,5.17739 -2.588697,-5.17739 m 7.766091,5.17739 2.588697,-5.17739 m -2.588697,2.58869 5.177394,-2.58869"
               style="fill:none;stroke:#000000;stroke-width:2.5886972"
               id="path2526" />
            <path
               inkscape:connector-curvature="0"
               d="m 73.212863,-181.18891 v -54.36264 m 2.588697,51.77394 v -49.18525 m 2.588698,51.77395 v -54.36264 m -12.943486,54.36264 H 106.86592 V -196.7211 M 78.390258,-207.07589 H 93.92244 m 0,10.35479 v -20.70957 m -28.475668,-18.12088 h 20.709577 m -18.12088,54.36264 5.177394,-2.5887 m -2.588697,2.5887 2.588697,-5.1774 m 7.766092,5.1774 -2.588697,-5.1774 m 5.177394,5.1774 -5.177394,-2.5887 m 15.532182,2.5887 12.94348,-2.5887 m -7.766086,2.5887 7.766086,-5.1774 m -5.17739,5.1774 5.17739,-7.7661 m -2.5887,7.7661 2.5887,-15.53219 m -12.94348,0 -2.588697,-10.35479 2.588697,-10.35478 m 0,15.53218 -5.177394,-5.1774 5.177394,-5.17739 m 0,7.76609 -10.354788,-2.5887 10.354788,-2.58869 m -20.709577,-23.29828 -5.177394,-2.58869 m 5.177394,5.17739 -2.588697,-5.17739 m 7.766092,5.17739 2.588697,-5.17739 m -2.588697,2.58869 5.177394,-2.58869"
               style="fill:none;stroke:#000000;stroke-width:2.5886972"
               id="path2528" />
            <path
               inkscape:connector-curvature="0"
               d="m 124.98681,-181.18891 v -54.36264 m 2.58869,51.77394 v -49.18525 m 2.58869,51.77395 v -54.36264 m -12.94347,54.36264 h 41.41915 v -15.53219 m -28.47568,-10.35479 h 15.53219 m 0,10.35479 v -20.70957 m -28.47566,-18.12088 h 20.70957 m -18.12088,54.36264 5.1774,-2.5887 m -2.5887,2.5887 2.5887,-5.1774 m 7.76609,5.1774 -2.5887,-5.1774 m 5.1774,5.1774 -5.1774,-2.5887 m 15.53218,2.5887 12.94349,-2.5887 m -7.76609,2.5887 7.76609,-5.1774 m -5.17739,5.1774 5.17739,-7.7661 m -2.5887,7.7661 2.5887,-15.53219 m -12.94349,0 -2.58869,-10.35479 2.58869,-10.35478 m 0,15.53218 -5.17739,-5.1774 5.17739,-5.17739 m 0,7.76609 -10.35478,-2.5887 10.35478,-2.58869 m -20.70957,-23.29828 -5.1774,-2.58869 m 5.1774,5.17739 -2.5887,-5.17739 m 7.76609,5.17739 2.5887,-5.17739 m -2.5887,2.58869 5.1774,-2.58869"
               style="fill:none;stroke:#000000;stroke-width:2.5886972"
               id="path2530" />
            <path
               inkscape:connector-curvature="0"
               d="m -154.59248,-188.95501 2.58869,7.7661 v -15.53219 l -2.58869,7.76609 -5.1774,5.1774 -7.76608,2.5887 h -7.76609 l -7.7661,-2.5887 -5.17739,-5.1774 v -7.76609 l 2.5887,-5.17739 7.76608,-5.1774 15.53219,-5.17739 5.1774,-2.5887 2.58869,-5.17739 v -7.76609 l -2.58869,-5.1774 m -28.47567,36.24176 2.58869,-5.17739 5.1774,-2.5887 15.53218,-5.17739 5.1774,-2.5887 2.58869,-5.17739 m -28.47567,33.65306 -2.58869,-5.1774 v -5.17739 l 2.58869,-5.17739 5.1774,-2.5887 15.53218,-5.1774 7.76609,-5.17739 2.5887,-5.17739 v -7.7661 l -2.5887,-5.17739 -2.58869,-2.5887 -7.7661,-2.58869 h -7.76609 l -7.76609,2.58869 -5.17739,5.1774 -2.5887,7.76609 v -15.53218 l 2.5887,7.76609"
               style="fill:none;stroke:#000000;stroke-width:2.5886972"
               id="path2518" />
            <path
               style="fill:none;stroke:#000000;stroke-width:3;stroke-linecap:round;stroke-linejoin:round;stroke-miterlimit:22.9260006;stroke-dasharray:none;stroke-opacity:1"
               d="m -14.802843,56.991556 c -16.798,0 -30.41789,-13.61889 -30.41789,-30.41789 0,-11.131001 5.98088,-20.8631684 14.90188,-26.16415844 l -39.78576,-67.10184556 -34.328107,-57.893542 -132.51052,-26.05315 c -2.735,13.991 -15.05887,24.54734 -29.84887,24.54734 -16.799,0 -30.41789,-13.61541 -30.41789,-30.41443 0,-16.79798 13.61889,-30.41787 30.41789,-30.41787 7.698,0 14.73091,2.86405 20.08891,7.58106 l 95.97576,-109.11515 -16.17175,-134.07866 c -1.195,0.143 -2.41107,0.2185 -3.64307,0.2185 -16.799,0 -30.41441,-13.61988 -30.41441,-30.4178 0,-16.79898 13.61541,-30.41798 30.41441,-30.41798 16.798,0 30.41788,13.619 30.41788,30.41798 0,4.28102 -0.88821,8.35384 -2.48422,12.04988 l 133.4264868,57.55702 122.5181032,-56.8111 c -1.80799,-3.89003 -2.81731,-8.22487 -2.81731,-12.7958 0,-16.79898 13.61543,-30.41798 30.41443,-30.41798 16.79699,0 30.41788,13.619 30.41788,30.41798 0,16.79792 -13.62089,30.4178 -30.41788,30.4178 -0.95501,0 -1.89572,-0.0492 -2.82772,-0.13536 l -13.51058,144.68892 91.89552,98.96994 c 5.429,-5.043 12.7011,-8.12925 20.6961,-8.12925 16.79701,0 30.41789,13.61989 30.41789,30.41787 0,16.79902 -13.62088,30.41443 -30.41789,30.41443 -14.507,0 -26.64232,-10.15587 -29.68233,-23.74587 L 65.726303,-117.97632 0.00188683,9.4555438e-5 C 9.3148868,5.2000936 15.611563,15.149661 15.611563,26.573666 c 0,16.799 -13.6154062,30.41789 -30.414406,30.41789 z"
               id="path854"
               inkscape:connector-curvature="0" />
          </g>
        </g>
      </g>
    </g>
  </g>
</svg>
