<?xml version="1.0" encoding="UTF-8" standalone="no"?>
<!-- Created with Inkscape (http://www.inkscape.org/) -->

<svg
   xmlns:dc="http://purl.org/dc/elements/1.1/"
   xmlns:cc="http://creativecommons.org/ns#"
   xmlns:rdf="http://www.w3.org/1999/02/22-rdf-syntax-ns#"
   xmlns:svg="http://www.w3.org/2000/svg"
   xmlns="http://www.w3.org/2000/svg"
   xmlns:sodipodi="http://sodipodi.sourceforge.net/DTD/sodipodi-0.dtd"
   xmlns:inkscape="http://www.inkscape.org/namespaces/inkscape"
   width="210mm"
   height="297mm"
   viewBox="0 0 210 297"
   version="1.1"
   id="svg8"
   inkscape:version="0.92.4 (unknown)"
   sodipodi:docname="woody.svg">
  <defs
     id="defs2">
    <clipPath
       id="clipPath850"
       clipPathUnits="userSpaceOnUse">
      <path
         inkscape:connector-curvature="0"
         id="path848"
         d="M 0,612 H 792 V 0 H 0 Z" />
    </clipPath>
  </defs>
  <sodipodi:namedview
     id="base"
     pagecolor="#ffffff"
     bordercolor="#666666"
     borderopacity="1.0"
     inkscape:pageopacity="0.0"
     inkscape:pageshadow="2"
     inkscape:zoom="2.1875787"
     inkscape:cx="198.49151"
     inkscape:cy="203.26007"
     inkscape:document-units="mm"
     inkscape:current-layer="g852"
     showgrid="false"
     inkscape:window-width="1918"
     inkscape:window-height="1038"
     inkscape:window-x="0"
     inkscape:window-y="20"
     inkscape:window-maximized="1" />
  <metadata
     id="metadata5">
    <rdf:RDF>
      <cc:Work
         rdf:about="">
        <dc:format>image/svg+xml</dc:format>
        <dc:type
           rdf:resource="http://purl.org/dc/dcmitype/StillImage" />
        <dc:title />
      </cc:Work>
    </rdf:RDF>
  </metadata>
  <g
     inkscape:label="Layer 1"
     inkscape:groupmode="layer"
     id="layer1">
    <g
       transform="matrix(0.1489411,0,0,-0.1489411,-16.769978,302.05327)"
       inkscape:label="sheriff-star-pattern"
       id="g842">
      <g
         id="g844">
        <g
           clip-path="url(#clipPath850)"
           id="g846">
          <g
             transform="translate(411.3047,518.582)"
             id="g852">
            <path
               style="color:#000000;font-style:normal;font-variant:normal;font-weight:normal;font-stretch:normal;font-size:medium;line-height:normal;font-family:sans-serif;font-variant-ligatures:normal;font-variant-position:normal;font-variant-caps:normal;font-variant-numeric:normal;font-variant-alternates:normal;font-feature-settings:normal;text-indent:0;text-align:start;text-decoration:none;text-decoration-line:none;text-decoration-style:solid;text-decoration-color:#000000;letter-spacing:normal;word-spacing:normal;text-transform:none;writing-mode:lr-tb;direction:ltr;text-orientation:mixed;dominant-baseline:auto;baseline-shift:baseline;text-anchor:start;white-space:normal;shape-padding:0;clip-rule:nonzero;display:inline;overflow:visible;visibility:visible;opacity:1;isolation:auto;mix-blend-mode:normal;color-interpolation:sRGB;color-interpolation-filters:linearRGB;solid-color:#000000;solid-opacity:1;vector-effect:none;fill:none;fill-opacity:1;fill-rule:nonzero;stroke:#ae0000;stroke-width:3;stroke-linecap:round;stroke-linejoin:round;stroke-miterlimit:22.9260006;stroke-dasharray:none;stroke-dashoffset:0;stroke-opacity:1;color-rendering:auto;image-rendering:auto;shape-rendering:auto;text-rendering:auto;enable-background:accumulate"
               d="m -170.54297,-484.6543 c -17.60964,0 -31.91406,14.30839 -31.91406,31.91797 0,17.60863 14.30442,31.91602 31.91406,31.91602 0.78641,0 1.55076,-0.0838 2.32227,-0.14063 l 15.92187,132.01563 -94.6289,107.58203 c -5.46052,-4.36955 -12.33588,-7.06055 -19.86524,-7.06055 -17.60964,0 -31.91797,14.30733 -31.91797,31.91602 0,17.60964 14.30839,31.91601 31.91797,31.91601 14.97676,0 27.4761,-10.37281 30.90235,-24.3125 l 130.50976,25.66016 73.056641,123.21093688 C -40.97612,5.6762373 -46.720703,15.443576 -46.720703,26.574219 c 0,17.609643 14.307383,31.916015 31.916015,31.916015 17.6095845,0 31.916016,-14.306431 31.916016,-31.916015 0,-11.437099 -6.063962,-21.4328187 -15.1191405,-27.0664065 L 66.710938,-116.66016 206.49414,-148.07227 c 3.71323,13.51767 16.01326,23.48047 30.69141,23.48047 17.60768,0 31.91601,-14.30631 31.91601,-31.91601 0,-17.60875 -14.30827,-31.91602 -31.91601,-31.91602 -7.83932,0 -14.96626,2.9139 -20.52344,7.60938 l -90.51172,-97.48047 13.31445,-142.5957 c 0.4896,0.0231 0.97159,0.0703 1.46875,0.0703 17.60774,0 31.91602,-14.30727 31.91602,-31.91602 0,-17.6097 -14.30828,-31.91797 -31.91602,-31.91797 -17.60964,0 -31.91601,14.30839 -31.91601,31.91797 0,4.26036 0.95125,8.27747 2.4707,11.99805 L -9.2050781,-384.77148 -140.77734,-441.5293 c 1.32026,-3.50188 2.15039,-7.24815 2.15039,-11.20703 0,-17.60964 -14.30733,-31.91797 -31.91602,-31.91797 z"
               id="path829" />
          </g>
        </g>
      </g>
    </g>
  </g>
</svg>
