<?xml version="1.0" encoding="UTF-8" standalone="no"?>
<!-- Created with Inkscape (http://www.inkscape.org/) -->

<svg
   xmlns:dc="http://purl.org/dc/elements/1.1/"
   xmlns:cc="http://creativecommons.org/ns#"
   xmlns:rdf="http://www.w3.org/1999/02/22-rdf-syntax-ns#"
   xmlns:svg="http://www.w3.org/2000/svg"
   xmlns="http://www.w3.org/2000/svg"
   xmlns:sodipodi="http://sodipodi.sourceforge.net/DTD/sodipodi-0.dtd"
   xmlns:inkscape="http://www.inkscape.org/namespaces/inkscape"
   sodipodi:docname="woody2.svg"
   inkscape:version="0.92.4 (unknown)"
   id="svg8"
   version="1.1"
   viewBox="0 0 210 297"
   height="297mm"
   width="210mm">
  <defs
     id="defs2">
    <clipPath
       id="clipPath850"
       clipPathUnits="userSpaceOnUse">
      <path
         inkscape:connector-curvature="0"
         id="path848"
         d="M 0,612 H 792 V 0 H 0 Z" />
    </clipPath>
  </defs>
  <sodipodi:namedview
     id="base"
     pagecolor="#ffffff"
     bordercolor="#666666"
     borderopacity="1.0"
     inkscape:pageopacity="0.0"
     inkscape:pageshadow="2"
     inkscape:zoom="2.1875787"
     inkscape:cx="198.03438"
     inkscape:cy="203.26007"
     inkscape:document-units="mm"
     inkscape:current-layer="g852"
     showgrid="false"
     inkscape:window-width="1920"
     inkscape:window-height="1012"
     inkscape:window-x="0"
     inkscape:window-y="32"
     inkscape:window-maximized="1" />
  <metadata
     id="metadata5">
    <rdf:RDF>
      <cc:Work
         rdf:about="">
        <dc:format>image/svg+xml</dc:format>
        <dc:type
           rdf:resource="http://purl.org/dc/dcmitype/StillImage" />
        <dc:title></dc:title>
      </cc:Work>
    </rdf:RDF>
  </metadata>
  <g
     inkscape:label="Layer 1"
     inkscape:groupmode="layer"
     id="layer1">
    <g
       transform="matrix(0.1489411,0,0,-0.1489411,-16.769978,302.05327)"
       inkscape:label="sheriff-star-pattern"
       id="g842">
      <g
         id="g844">
        <g
           clip-path="url(#clipPath850)"
           id="g846">
          <g
             transform="translate(411.3047,518.582)"
             id="g852">
            <path
               inkscape:connector-curvature="0"
               id="path854"
               style="fill:none;stroke:#000000;stroke-width:3;stroke-linecap:round;stroke-linejoin:round;stroke-miterlimit:22.9260006;stroke-dasharray:none;stroke-opacity:1"
               d="m 0,0 65.727,-117.977 141.777,-31.86 c 3.04,13.59 15.174,23.746 29.681,23.746 16.797,0 30.416,-13.617 30.416,-30.416 0,-16.798 -13.619,-30.416 -30.416,-30.416 -7.995,0 -15.266,3.086 -20.695,8.129 l -91.896,-98.972 13.511,-144.688 c 0.932,0.086 1.874,0.133 2.829,0.133 16.797,0 30.416,-13.618 30.416,-30.416 0,-16.799 -13.619,-30.417 -30.416,-30.417 -16.799,0 -30.416,13.618 -30.416,30.417 0,4.571 1.009,8.907 2.817,12.797 l -122.518,56.811 -133.426,-57.558 c 1.596,-3.696 2.483,-7.769 2.483,-12.05 0,-16.799 -13.618,-30.417 -30.416,-30.417 -16.799,0 -30.416,13.618 -30.416,30.417 0,16.798 13.617,30.416 30.416,30.416 1.232,0 2.447,-0.076 3.642,-0.219 l 16.171,134.081 -95.977,109.115 c -5.358,-4.717 -12.389,-7.579 -20.087,-7.579 -16.799,0 -30.417,13.618 -30.417,30.416 0,16.799 13.618,30.416 30.417,30.416 14.79,0 27.113,-10.557 29.848,-24.548 l 132.512,26.053 74.114,124.995 c -8.921,5.301 -14.902,15.034 -14.902,26.165 0,16.799 13.618,30.416 30.416,30.416 16.799,0 30.416,-13.617 30.416,-30.416 C 15.611,15.15 9.313,5.2 0,0 Z" />
            <path
               inkscape:connector-curvature="0"
               d="m -154.59415,-164.08499 2.5887,7.7661 v -15.53219 l -2.5887,7.76609 -5.17739,5.1774 -7.76609,2.5887 h -7.76609 l -7.7661,-2.5887 -5.17739,-5.1774 v -7.76609 l 2.5887,-5.17739 7.76609,-5.1774 15.53218,-5.17739 5.1774,-2.5887 2.58869,-5.17739 v -7.76609 l -2.58869,-5.1774 m -28.47567,36.24176 2.58869,-5.17739 5.1774,-2.5887 15.53218,-5.17739 5.1774,-2.5887 2.58869,-5.17739 m -28.47567,33.65306 -2.58869,-5.1774 v -5.17739 l 2.58869,-5.17739 5.1774,-2.5887 15.53218,-5.1774 7.76609,-5.17739 2.5887,-5.17739 v -7.7661 l -2.5887,-5.17739 -2.58869,-2.5887 -7.7661,-2.58869 h -7.76609 l -7.76609,2.58869 -5.17739,5.1774 -2.5887,7.76609 v -15.53218 l 2.5887,7.76609"
               style="fill:none;stroke:#000000;stroke-width:2.5886972"
               id="path2518" />
            <path
               inkscape:connector-curvature="0"
               d="m -131.29587,-156.31889 v -54.36264 m 2.5887,51.77394 v -49.18525 m 2.58869,51.77395 v -54.36264 m 25.88698,54.36264 v -54.36264 m 2.588693,51.77394 v -49.18525 m 2.588697,51.77395 v -54.36264 m -44.00785,54.36264 h 20.70958 m 10.35478,0 h 20.709581 m -38.830461,-25.88698 h 25.88698 m -38.83046,-28.47566 h 20.70958 m 10.35478,0 h 20.709581 m -49.185241,54.36264 5.17739,-2.5887 m -2.5887,2.5887 2.5887,-5.1774 m 7.76609,5.1774 -2.5887,-5.1774 m 5.1774,5.1774 -5.1774,-2.5887 m 20.70958,2.5887 5.1774,-2.5887 m -2.5887,2.5887 2.5887,-5.1774 m 7.766087,5.1774 -2.588697,-5.1774 m 5.177394,5.1774 -5.177394,-2.5887 m -36.24176,-49.18525 -5.17739,-2.58869 m 5.17739,5.17739 -2.5887,-5.17739 m 7.76609,5.17739 2.5887,-5.17739 m -2.5887,2.58869 5.1774,-2.58869 m 20.70958,2.58869 -5.1774,-2.58869 m 5.1774,5.17739 -2.5887,-5.17739 m 7.76609,5.17739 2.588697,-5.17739 m -2.588697,2.58869 5.177394,-2.58869"
               style="fill:none;stroke:#000000;stroke-width:2.5886972"
               id="path2520" />
            <path
               inkscape:connector-curvature="0"
               d="m -69.167142,-156.31889 v -54.36264 m 2.588697,51.77394 v -49.18525 m 2.588698,51.77395 v -54.36264 m -12.943486,54.36264 h 41.419154 v -15.53219 m -28.475668,-10.35479 h 15.532182 m 0,10.35479 v -20.70957 m -28.475668,-18.12088 h 41.419154 v 15.53218 m -38.830457,38.83046 5.177394,-2.5887 m -2.588697,2.5887 2.588697,-5.1774 m 7.766092,5.1774 -2.588697,-5.1774 m 5.177394,5.1774 -5.177394,-2.5887 m 15.532182,2.5887 12.943486,-2.5887 m -7.766092,2.5887 7.766092,-5.1774 m -5.177394,5.1774 5.177394,-7.7661 m -2.588697,7.7661 2.588697,-15.53219 m -12.943486,0 -2.588697,-10.35479 2.588697,-10.35478 m 0,15.53218 -5.177394,-5.1774 5.177394,-5.17739 m 0,7.76609 -10.354788,-2.5887 10.354788,-2.58869 m -20.709577,-23.29828 -5.177394,-2.58869 m 5.177394,5.17739 -2.588697,-5.17739 m 7.766092,5.17739 2.588697,-5.17739 m -2.588697,2.58869 5.177394,-2.58869 m 10.354788,0 12.943486,2.58869 m -7.766092,-2.58869 7.766092,5.17739 m -5.177394,-5.17739 5.177394,7.76609 m -2.588697,-7.76609 2.588697,15.53218"
               style="fill:none;stroke:#000000;stroke-width:2.5886972"
               id="path2522" />
            <path
               inkscape:connector-curvature="0"
               d="m -14.804503,-156.31889 v -54.36264 m 2.588697,51.77394 v -49.18525 m 2.5886972,51.77395 v -54.36264 m -12.9434852,54.36264 H 8.4937709 l 7.7660911,-2.5887 2.588697,-2.5887 2.588697,-5.17739 v -5.1774 l -2.588697,-5.17739 -2.588697,-2.5887 -7.7660911,-2.5887 H -9.6271088 m 25.8869708,20.70958 2.588697,-5.17739 v -5.1774 l -2.588697,-5.17739 m -7.7660911,20.70958 5.1773941,-2.5887 2.588697,-5.1774 v -10.35478 l -2.588697,-5.1774 -5.1773941,-2.5887 m -7.7660913,0 5.1773942,-2.58869 2.5886971,-5.1774 5.1773941,-15.53218 2.588697,-5.17739 h 5.177394 l 2.588697,5.17739 v 5.17739 m -10.354788,0 2.588697,-5.17739 2.588697,-2.5887 h 2.588697 m -15.5321822,23.29828 2.5886971,-2.5887 7.7660911,-15.53218 2.588697,-2.5887 h 2.588697 l 2.588697,2.5887 m -46.596547,-7.76609 h 20.7095765 m -18.1208795,54.36264 5.177394,-2.5887 m -2.588697,2.5887 2.588697,-5.1774 m 7.7660913,5.1774 -2.5886971,-5.1774 m 5.1773942,5.1774 -5.1773942,-2.5887 m -5.1773942,-49.18525 -5.177394,-2.58869 m 5.177394,5.17739 -2.588697,-5.17739 m 7.7660912,5.17739 2.5886971,-5.17739 m -2.5886971,2.58869 5.1773942,-2.58869"
               style="fill:none;stroke:#000000;stroke-width:2.5886972"
               id="path2524" />
            <path
               inkscape:connector-curvature="0"
               d="m 42.146833,-156.31889 v -54.36264 m 2.588697,51.77394 v -49.18525 m 2.588697,51.77395 v -54.36264 m -12.943485,54.36264 h 20.709576 m -20.709576,-54.36264 h 20.709576 m -18.120879,54.36264 5.177394,-2.5887 m -2.588697,2.5887 2.588697,-5.1774 m 7.766091,5.1774 -2.588697,-5.1774 m 5.177394,5.1774 -5.177394,-2.5887 m -5.177394,-49.18525 -5.177394,-2.58869 m 5.177394,5.17739 -2.588697,-5.17739 m 7.766091,5.17739 2.588697,-5.17739 m -2.588697,2.58869 5.177394,-2.58869"
               style="fill:none;stroke:#000000;stroke-width:2.5886972"
               id="path2526" />
            <path
               inkscape:connector-curvature="0"
               d="m 73.211198,-156.31889 v -54.36264 m 2.588697,51.77394 v -49.18525 m 2.588698,51.77395 v -54.36264 m -12.943486,54.36264 h 41.419153 v -15.53219 m -28.475667,-10.35479 h 15.532182 m 0,10.35479 v -20.70957 m -28.475668,-18.12088 h 20.709577 m -18.12088,54.36264 5.177394,-2.5887 m -2.588697,2.5887 2.588697,-5.1774 m 7.766092,5.1774 -2.588697,-5.1774 m 5.177394,5.1774 -5.177394,-2.5887 m 15.532182,2.5887 12.943485,-2.5887 m -7.766091,2.5887 7.766091,-5.1774 m -5.17739,5.1774 5.17739,-7.7661 m -2.5887,7.7661 2.5887,-15.53219 m -12.943485,0 -2.588697,-10.35479 2.588697,-10.35478 m 0,15.53218 -5.177394,-5.1774 5.177394,-5.17739 m 0,7.76609 -10.354788,-2.5887 10.354788,-2.58869 m -20.709577,-23.29828 -5.177394,-2.58869 m 5.177394,5.17739 -2.588697,-5.17739 m 7.766092,5.17739 2.588697,-5.17739 m -2.588697,2.58869 5.177394,-2.58869"
               style="fill:none;stroke:#000000;stroke-width:2.5886972"
               id="path2528" />
            <path
               inkscape:connector-curvature="0"
               d="m 124.98514,-156.31889 v -54.36264 m 2.58869,51.77394 v -49.18525 m 2.5887,51.77395 v -54.36264 m -12.94348,54.36264 h 41.41915 v -15.53219 m -28.47567,-10.35479 h 15.53218 m 0,10.35479 v -20.70957 m -28.47566,-18.12088 h 20.70957 m -18.12088,54.36264 5.1774,-2.5887 m -2.5887,2.5887 2.5887,-5.1774 m 7.76609,5.1774 -2.5887,-5.1774 m 5.1774,5.1774 -5.1774,-2.5887 m 15.53218,2.5887 12.94349,-2.5887 m -7.76609,2.5887 7.76609,-5.1774 m -5.17739,5.1774 5.17739,-7.7661 m -2.5887,7.7661 2.5887,-15.53219 m -12.94349,0 -2.58869,-10.35479 2.58869,-10.35478 m 0,15.53218 -5.17739,-5.1774 5.17739,-5.17739 m 0,7.76609 -10.35478,-2.5887 10.35478,-2.58869 m -20.70957,-23.29828 -5.1774,-2.58869 m 5.1774,5.17739 -2.5887,-5.17739 m 7.76609,5.17739 2.5887,-5.17739 m -2.5887,2.58869 5.1774,-2.58869"
               style="fill:none;stroke:#000000;stroke-width:2.5886972"
               id="path2530" />
          </g>
        </g>
      </g>
    </g>
  </g>
</svg>
